<?xml version="1.0" encoding="utf-8"?>
<!-- Generator: Adobe Illustrator 16.0.3, SVG Export Plug-In . SVG Version: 6.00 Build 0)  -->
<!DOCTYPE svg PUBLIC "-//W3C//DTD SVG 1.1//EN" "http://www.w3.org/Graphics/SVG/1.1/DTD/svg11.dtd">
<svg version="1.1" id="Layer_1" xmlns="http://www.w3.org/2000/svg" xmlns:xlink="http://www.w3.org/1999/xlink" x="0px" y="0px"
	 width="1280px" height="1280px" viewBox="0 0 1280 1280" enable-background="new 0 0 1280 1280" xml:space="preserve">
<polygon fill="#C9DD03" points="1279,214 640,640 849.111,1 1279,1 "/>
<polyline fill="#C9DD03" points="1279,962.89 640,640 1279,545.111 "/>
<polyline fill="#C9DD03" points="640,640 0,1 471,1 "/>
<polyline fill="#C9DD03" points="0,1280 0,1032 640,640 "/>
<polyline fill="#69BE28" points="0,1032 0,738.445 640,640 "/>
<polyline fill="#69BE28" points="640,640 0,487.333 0,1 "/>
<path fill="#421884" d="M525.716,237.597"/>
<path fill="#421884" d="M429.938,922.143"/>
<polygon fill="#C9DD03" points="1280,1280 835.777,1280 640,640 1279,1134 "/>
<polyline fill="#C9DD03" points="394,1280 0,1280 640,640 "/>
<polyline fill="#69BE28" points="849.111,1 640,640 471,1 "/>
<polyline fill="#69BE28" points="1279,545.111 640,640 1279,214 "/>
<polyline fill="#69BE28" points="836,1280 394,1280 640.111,640.23 "/>
<polyline fill="#69BE28" points="1279,963 1279,1134 640,640 "/>
<polyline fill="#C9DD03" points="640,640 0,738.445 0,487 "/>
</svg>
