<?xml version="1.0" encoding="utf-8"?>
<!-- Generator: Adobe Illustrator 16.0.3, SVG Export Plug-In . SVG Version: 6.00 Build 0)  -->
<!DOCTYPE svg PUBLIC "-//W3C//DTD SVG 1.1//EN" "http://www.w3.org/Graphics/SVG/1.1/DTD/svg11.dtd">
<svg version="1.1" id="Layer_1" xmlns="http://www.w3.org/2000/svg" xmlns:xlink="http://www.w3.org/1999/xlink" x="0px" y="0px"
	 width="467.667px" height="122.333px" viewBox="0 0 467.667 122.333" enable-background="new 0 0 467.667 122.333"
	 xml:space="preserve">
<path fill-rule="evenodd" clip-rule="evenodd" fill="#83A64D" d="M100.509,56.196l-76.656-0.554
	c1.702-8.064,6.178-15.205,13.355-21.383c8.139-7.029,17.388-10.212,27.747-9.545C75.315,25.417,84.009,29.783,91,37.847
	C96.143,43.73,99.288,49.834,100.509,56.196z M46.421,97.964l-6.327,16.577c10.433,4.44,20.864,5.77,31.26,4.067
	c10.36-1.738,19.645-6.103,27.785-13.133c11.763-10.173,18.238-23.122,19.458-38.883c1.186-15.759-3.255-29.41-13.355-41.027
	C95.033,13.8,82.048,7.474,66.325,6.548c-15.686-0.924-29.412,3.7-41.176,13.837c-7.473,6.436-12.912,14.392-16.315,23.787
	c-3.404,9.436-4.18,18.98-2.331,28.636l93.45-0.036c-1.998,6.88-6.288,13.132-12.875,18.83c-5.511,4.772-11.653,7.695-18.498,8.878
	C61.738,101.628,54.339,100.777,46.421,97.964z"/>
<path fill-rule="evenodd" clip-rule="evenodd" fill="#CE6632" d="M257.516,20.238c0,0-1.257-1.37-1.921-2.034
	c-3.664-3.664-8.029-6.623-13.138-8.955c-5.104-2.33-10.801-3.513-17.014-3.513c-14.872,0-25.861,5.733-33.001,17.164
	c-2.218-4.661-6.548-8.656-12.984-12.06c-6.439-3.403-13.245-5.104-20.349-5.104c-11.839,0-21.384,3.883-28.708,11.615
	l-13.835-9.063v20.645c7.325,9.655,10.986,20.79,10.986,33.479c0,12.504-3.661,23.641-10.986,33.37v20.496h18.756V48.021
	c0-7.177,2.404-12.948,7.214-17.276c4.772-4.328,10.322-6.511,16.574-6.511c6.4,0,11.95,2.183,16.685,6.548
	c4.736,4.364,7.104,10.1,7.104,17.239v68.258h18.757V48.021c0-7.177,2.368-12.948,7.177-17.276
	c4.772-4.328,10.322-6.511,16.612-6.511c6.362,0,11.91,2.183,16.647,6.548c1.889,1.738,4.551,5.808,4.551,5.808L257.516,20.238z
	 M461.88,28.082l-13.612,10.542c-8.809-9.582-19.015-14.39-30.706-14.39c-10.729,0-19.796,3.7-27.122,11.024
	c-7.359,7.361-11.022,16.388-11.022,27.154c0,10.876,3.663,19.978,11.022,27.34c7.367,7.361,16.427,11.062,27.122,11.062
	c11.467,0,21.417-4.625,29.893-13.874l13.909,10.766c-5.846,7.585-12.468,13.059-19.83,16.465
	c-7.364,3.44-15.316,5.139-23.972,5.139c-15.504,0-28.86-5.622-40.07-16.831c-11.207-11.209-16.833-24.566-16.833-40.067
	c0-15.685,5.626-29.042,16.833-40.102c11.251-11.063,24.603-16.574,40.07-16.574c8.949,0,17.128,1.775,24.527,5.327
	C449.523,14.577,456.107,20.238,461.88,28.082z M345.973,102.405l17.537,13.874V94.747c-6.847-9.471-10.25-20.273-10.25-32.335
	c0-12.246,3.403-23.048,10.25-32.445V8.288l-17.537,14.095c-10.245-11.098-23.378-16.647-39.401-16.647
	c-15.464,0-28.816,5.511-40.066,16.574c-11.207,11.061-16.833,24.417-16.833,40.102c0,15.501,5.626,28.858,16.833,40.067
	c11.211,11.208,24.567,16.831,40.066,16.831C322.554,119.31,335.687,113.688,345.973,102.405z M306.571,24.233
	c10.546,0,19.57,3.736,27.009,11.173c7.436,7.436,11.172,16.426,11.172,27.006c0,10.692-3.736,19.755-11.211,27.192
	c-7.431,7.473-16.424,11.209-26.97,11.209c-10.69,0-19.752-3.7-27.119-11.062c-7.357-7.362-11.021-16.463-11.021-27.34
	c0-10.767,3.664-19.793,11.021-27.154C286.78,27.933,295.845,24.233,306.571,24.233z"/>
</svg>
